<svg width="1490" height="765" viewBox="0 0 1462 765" fill="none" xmlns="http://www.w3.org/2000/svg">
<path d="M3 693L33.5418 612.625L76.7215 675.324L168.347 535.251L221.532 580.275L277.349 535.251L394.251 580.275L638.058 417.856L719.679 467.549L757.592 168.393L806.038 327.809L938.21 202.077L1027.2 274.448L1151.48 68.6743L1354.74 255.438L1459 54" stroke="#344F99" stroke-width="5"/>
<path d="M18 764C31.2274 737.507 59.9795 684.213 69.1691 682.982C80.656 681.444 100.96 731.904 121.382 737.336C146.445 744.002 285.658 565.046 385.582 565.046C503.584 565.046 604.356 700.417 712.438 504.539C800.843 344.321 809.314 46.6364 898.317 46.6364C989.168 46.6364 1058.64 437.879 1154.16 437.879C1250.24 437.879 1330.12 1 1369.28 1C1408.44 1 1440.81 112.1 1457 167.65" stroke="#F3A47D" stroke-width="2" stroke-dasharray="15 15"/>
<circle cx="1355" cy="256" r="6.5" fill="#FBFCFE" stroke="#344F99" stroke-width="3"/>
<circle cx="221" cy="581" r="6.5" fill="#F4F7FD" stroke="#344F99" stroke-width="3"/>
<circle cx="396" cy="581" r="6.5" fill="#F4F7FD" stroke="#344F99" stroke-width="3"/>
<circle cx="638" cy="418" r="6.5" fill="#F4F7FD" stroke="#344F99" stroke-width="3"/>
<circle cx="719" cy="468" r="6.5" fill="#F4F7FD" stroke="#344F99" stroke-width="3"/>
<circle cx="759" cy="171" r="6.5" fill="#FAFBFE" stroke="#344F99" stroke-width="3"/>
<circle cx="1026" cy="275" r="6.5" fill="#F4F7FD" stroke="#344F99" stroke-width="3"/>
<circle cx="938" cy="202" r="6.5" fill="#F4F7FD" stroke="#344F99" stroke-width="3"/>
<circle cx="1151" cy="69" r="6.5" fill="#FBFCFE" stroke="#344F99" stroke-width="3"/>
<circle cx="807" cy="326" r="6.5" fill="#F4F7FD" stroke="#344F99" stroke-width="3"/>
<circle cx="168" cy="536" r="6.5" fill="#F4F7FD" stroke="#344F99" stroke-width="3"/>
<circle cx="34" cy="610" r="6.5" fill="#F4F7FD" stroke="#344F99" stroke-width="3"/>
<circle cx="77" cy="675" r="6.5" fill="#F4F7FD" stroke="#344F99" stroke-width="3"/>
<circle cx="278" cy="536" r="6.5" fill="#F4F7FD" stroke="#344F99" stroke-width="3"/>
</svg>
