<svg width="221" height="90" viewBox="0 0 221 90" fill="none" xmlns="http://www.w3.org/2000/svg">
<path d="M83.0896 59.8391L80.8988 62.1734L76.9038 68.7872L71.4913 71.3808L57.5735 66.9716L52.6765 68.7872L39.9184 83.0521L7.05684 77.2165L1 59.8391L18.6551 24.5658L17.8818 13.1538L24.9696 10.6899L35.1503 17.6927L41.7226 16.1365L48.2949 14.5803L54.8672 16.0068L61.955 11.857L66.5943 13.1538L67.7541 18.8598L64.5324 23.7877L70.4604 31.1796L71.4913 39.8682L70.4604 44.1477L83.0896 59.8391Z" fill="#537ABB"/>
<path d="M80.8988 62.1734L83.0896 59.8391L70.4604 44.1477M80.8988 62.1734L76.9038 68.7872L71.4913 71.3808L57.5735 66.9716M80.8988 62.1734L57.5735 39.8682M57.5735 66.9716L52.6765 68.7872L39.9184 83.0521M57.5735 66.9716V39.8682M39.9184 83.0521L7.05684 77.2165M39.9184 83.0521L23.0366 54.5222M7.05684 77.2165L23.0366 54.5222M7.05684 77.2165L1 59.8391M1 59.8391L23.0366 54.5222M1 59.8391L18.6551 24.5658M18.6551 24.5658L17.8818 13.1538L24.9696 10.6899L35.1503 17.6927M18.6551 24.5658L57.5735 39.8682M18.6551 24.5658L23.0366 54.5222M35.1503 17.6927L41.7226 16.1365L48.2949 14.5803L54.8672 16.0068M35.1503 17.6927L57.5735 39.8682M54.8672 16.0068L61.955 11.857L66.5943 13.1538L67.7541 18.8598L64.5324 23.7877M54.8672 16.0068L57.5735 39.8682M64.5324 23.7877L70.4604 31.1796L71.4913 39.8682L70.4604 44.1477M64.5324 23.7877L61.053 31.828L57.5735 39.8682M70.4604 44.1477L57.5735 39.8682M57.5735 39.8682L23.0366 54.5222" stroke="white" stroke-width="1.5" stroke-linejoin="round"/>
<path d="M98.1199 10.7641H104.816C105.936 10.7641 107.016 10.9401 108.056 11.2921C109.096 11.6281 110.016 12.1481 110.816 12.8521C111.616 13.5561 112.256 14.4441 112.736 15.5161C113.216 16.5721 113.456 17.8201 113.456 19.2601C113.456 20.7161 113.176 21.9801 112.616 23.0521C112.072 24.1081 111.36 24.9881 110.48 25.6921C109.616 26.3801 108.648 26.9001 107.576 27.2521C106.52 27.5881 105.48 27.7561 104.456 27.7561H98.1199V10.7641ZM103.4 25.0201C104.344 25.0201 105.232 24.9161 106.064 24.7081C106.912 24.4841 107.648 24.1481 108.272 23.7001C108.896 23.2361 109.384 22.6441 109.736 21.9241C110.104 21.1881 110.288 20.3001 110.288 19.2601C110.288 18.2361 110.128 17.3561 109.808 16.6201C109.488 15.8841 109.04 15.2921 108.464 14.8441C107.904 14.3801 107.232 14.0441 106.448 13.8361C105.68 13.6121 104.832 13.5001 103.904 13.5001H101.144V25.0201H103.4ZM106.448 43.4121C106.128 42.9481 105.696 42.6121 105.152 42.4041C104.624 42.1801 104.064 42.0681 103.472 42.0681C103.12 42.0681 102.776 42.1081 102.44 42.1881C102.12 42.2681 101.824 42.3961 101.552 42.5721C101.296 42.7481 101.088 42.9801 100.928 43.2681C100.768 43.5401 100.688 43.8681 100.688 44.2521C100.688 44.8281 100.888 45.2681 101.288 45.5721C101.688 45.8761 102.184 46.1401 102.776 46.3641C103.368 46.5881 104.016 46.8041 104.72 47.0121C105.424 47.2201 106.072 47.5081 106.664 47.8761C107.256 48.2441 107.752 48.7321 108.152 49.3401C108.552 49.9481 108.752 50.7561 108.752 51.7641C108.752 52.6761 108.584 53.4761 108.248 54.1641C107.912 54.8361 107.456 55.3961 106.88 55.8441C106.32 56.2921 105.664 56.6281 104.912 56.8521C104.16 57.0761 103.368 57.1881 102.536 57.1881C101.48 57.1881 100.464 57.0121 99.4879 56.6601C98.5119 56.3081 97.6719 55.7161 96.9679 54.8841L99.2479 52.6761C99.6159 53.2361 100.096 53.6761 100.688 53.9961C101.296 54.3001 101.936 54.4521 102.608 54.4521C102.96 54.4521 103.312 54.4041 103.664 54.3081C104.016 54.2121 104.336 54.0681 104.624 53.8761C104.912 53.6841 105.144 53.4441 105.32 53.1561C105.496 52.8521 105.584 52.5081 105.584 52.1241C105.584 51.5001 105.384 51.0201 104.984 50.6841C104.584 50.3481 104.088 50.0681 103.496 49.8441C102.904 49.6041 102.256 49.3801 101.552 49.1721C100.848 48.9641 100.2 48.6841 99.6079 48.3321C99.0159 47.9641 98.5199 47.4841 98.1199 46.8921C97.7199 46.2841 97.5199 45.4761 97.5199 44.4681C97.5199 43.5881 97.6959 42.8281 98.0479 42.1881C98.4159 41.5481 98.8879 41.0201 99.4639 40.6041C100.056 40.1721 100.728 39.8521 101.48 39.6441C102.232 39.4361 103 39.3321 103.784 39.3321C104.68 39.3321 105.544 39.4681 106.376 39.7401C107.224 40.0121 107.984 40.4601 108.656 41.0841L106.448 43.4121ZM111.728 79.5161C111.728 80.5401 111.552 81.4681 111.2 82.3001C110.848 83.1161 110.368 83.8121 109.76 84.3881C109.152 84.9641 108.432 85.4121 107.6 85.7321C106.768 86.0361 105.864 86.1881 104.888 86.1881C103.912 86.1881 103.008 86.0361 102.176 85.7321C101.344 85.4121 100.616 84.9641 99.9919 84.3881C99.3839 83.8121 98.9039 83.1161 98.5519 82.3001C98.2159 81.4681 98.0479 80.5401 98.0479 79.5161V68.7641H101.072V79.4201C101.072 79.8361 101.136 80.2761 101.264 80.7401C101.392 81.1881 101.6 81.6041 101.888 81.9881C102.192 82.3721 102.584 82.6921 103.064 82.9481C103.56 83.1881 104.168 83.3081 104.888 83.3081C105.608 83.3081 106.208 83.1881 106.688 82.9481C107.184 82.6921 107.576 82.3721 107.864 81.9881C108.168 81.6041 108.384 81.1881 108.512 80.7401C108.64 80.2761 108.704 79.8361 108.704 79.4201V68.7641H111.728V79.5161Z" fill="#537ABB"/>
<path d="M124.371 10.7641H126.003L133.155 27.7561H131.379L129.531 23.2441H120.531L118.611 27.7561H116.955L124.371 10.7641ZM125.115 12.4921L121.155 21.8041H128.955L125.115 12.4921ZM140.12 12.2041H134.312V10.7641H147.512V12.2041H141.704V27.7561H140.12V12.2041ZM156.101 10.7641H157.733L164.885 27.7561H163.109L161.261 23.2441H152.261L150.341 27.7561H148.685L156.101 10.7641ZM156.845 12.4921L152.885 21.8041H160.685L156.845 12.4921ZM128.725 54.0921C127.909 55.1961 126.965 55.9881 125.893 56.4681C124.821 56.9481 123.661 57.1881 122.413 57.1881C121.117 57.1881 119.925 56.9721 118.837 56.5401C117.765 56.0921 116.845 55.4761 116.077 54.6921C115.309 53.8921 114.709 52.9481 114.277 51.8601C113.845 50.7561 113.629 49.5561 113.629 48.2601C113.629 46.9641 113.845 45.7721 114.277 44.6841C114.709 43.5961 115.309 42.6601 116.077 41.8761C116.845 41.0761 117.765 40.4521 118.837 40.0041C119.925 39.5561 121.117 39.3321 122.413 39.3321C123.565 39.3321 124.637 39.5401 125.629 39.9561C126.637 40.3561 127.517 41.0361 128.269 41.9961L126.973 43.0761C126.445 42.2761 125.765 41.6921 124.933 41.3241C124.117 40.9561 123.277 40.7721 122.413 40.7721C121.309 40.7721 120.309 40.9641 119.413 41.3481C118.533 41.7321 117.781 42.2601 117.157 42.9321C116.533 43.6041 116.053 44.3961 115.717 45.3081C115.381 46.2201 115.213 47.2041 115.213 48.2601C115.213 49.3161 115.381 50.3001 115.717 51.2121C116.053 52.1241 116.533 52.9161 117.157 53.5881C117.781 54.2601 118.533 54.7881 119.413 55.1721C120.309 55.5561 121.309 55.7481 122.413 55.7481C122.845 55.7481 123.293 55.7001 123.757 55.6041C124.221 55.4921 124.669 55.3321 125.101 55.1241C125.549 54.9001 125.973 54.6281 126.373 54.3081C126.773 53.9721 127.125 53.5721 127.429 53.1081L128.725 54.0921ZM134.032 39.7641H135.616V56.7561H134.032V39.7641ZM142.666 39.7641H153.058V41.2041H144.25V47.2521H152.506V48.6921H144.25V55.3161H153.442V56.7561H142.666V39.7641ZM159.293 39.7641H161.333L171.677 54.6441H171.725V39.7641H173.309V56.7561H171.269L160.925 41.8761H160.877V56.7561H159.293V39.7641ZM194.364 54.0921C193.548 55.1961 192.604 55.9881 191.532 56.4681C190.46 56.9481 189.3 57.1881 188.052 57.1881C186.756 57.1881 185.564 56.9721 184.476 56.5401C183.404 56.0921 182.484 55.4761 181.716 54.6921C180.948 53.8921 180.348 52.9481 179.916 51.8601C179.484 50.7561 179.268 49.5561 179.268 48.2601C179.268 46.9641 179.484 45.7721 179.916 44.6841C180.348 43.5961 180.948 42.6601 181.716 41.8761C182.484 41.0761 183.404 40.4521 184.476 40.0041C185.564 39.5561 186.756 39.3321 188.052 39.3321C189.204 39.3321 190.276 39.5401 191.268 39.9561C192.276 40.3561 193.156 41.0361 193.908 41.9961L192.612 43.0761C192.084 42.2761 191.404 41.6921 190.572 41.3241C189.756 40.9561 188.916 40.7721 188.052 40.7721C186.948 40.7721 185.948 40.9641 185.052 41.3481C184.172 41.7321 183.42 42.2601 182.796 42.9321C182.172 43.6041 181.692 44.3961 181.356 45.3081C181.02 46.2201 180.852 47.2041 180.852 48.2601C180.852 49.3161 181.02 50.3001 181.356 51.2121C181.692 52.1241 182.172 52.9161 182.796 53.5881C183.42 54.2601 184.172 54.7881 185.052 55.1721C185.948 55.5561 186.948 55.7481 188.052 55.7481C188.484 55.7481 188.932 55.7001 189.396 55.6041C189.86 55.4921 190.308 55.3321 190.74 55.1241C191.188 54.9001 191.612 54.6281 192.012 54.3081C192.412 53.9721 192.764 53.5721 193.068 53.1081L194.364 54.0921ZM199.671 39.7641H210.063V41.2041H201.255V47.2521H209.511V48.6921H201.255V55.3161H210.447V56.7561H199.671V39.7641ZM118.272 68.7641H120.312L130.656 83.6441H130.704V68.7641H132.288V85.7561H130.248L119.904 70.8761H119.856V85.7561H118.272V68.7641ZM139.352 68.7641H140.936V85.7561H139.352V68.7641ZM146.882 77.2601C146.882 75.9641 147.098 74.7721 147.53 73.6841C147.962 72.5961 148.562 71.6601 149.33 70.8761C150.098 70.0761 151.018 69.4521 152.09 69.0041C153.178 68.5561 154.37 68.3321 155.666 68.3321C156.962 68.3321 158.146 68.5561 159.218 69.0041C160.306 69.4521 161.234 70.0761 162.002 70.8761C162.77 71.6601 163.37 72.5961 163.802 73.6841C164.234 74.7721 164.45 75.9641 164.45 77.2601C164.45 78.5561 164.234 79.7561 163.802 80.8601C163.37 81.9481 162.77 82.8921 162.002 83.6921C161.234 84.4761 160.306 85.0921 159.218 85.5401C158.146 85.9721 156.962 86.1881 155.666 86.1881C154.37 86.1881 153.178 85.9721 152.09 85.5401C151.018 85.0921 150.098 84.4761 149.33 83.6921C148.562 82.8921 147.962 81.9481 147.53 80.8601C147.098 79.7561 146.882 78.5561 146.882 77.2601ZM148.466 77.2601C148.466 78.3161 148.634 79.3001 148.97 80.2121C149.306 81.1241 149.786 81.9161 150.41 82.5881C151.034 83.2601 151.786 83.7881 152.666 84.1721C153.562 84.5561 154.562 84.7481 155.666 84.7481C156.77 84.7481 157.762 84.5561 158.642 84.1721C159.538 83.7881 160.298 83.2601 160.922 82.5881C161.546 81.9161 162.026 81.1241 162.362 80.2121C162.698 79.3001 162.866 78.3161 162.866 77.2601C162.866 76.2041 162.698 75.2201 162.362 74.3081C162.026 73.3961 161.546 72.6041 160.922 71.9321C160.298 71.2601 159.538 70.7321 158.642 70.3481C157.762 69.9641 156.77 69.7721 155.666 69.7721C154.562 69.7721 153.562 69.9641 152.666 70.3481C151.786 70.7321 151.034 71.2601 150.41 71.9321C149.786 72.6041 149.306 73.3961 148.97 74.3081C148.634 75.2201 148.466 76.2041 148.466 77.2601ZM170.402 68.7641H172.442L182.786 83.6441H182.834V68.7641H184.418V85.7561H182.378L172.034 70.8761H171.986V85.7561H170.402V68.7641Z" fill="black"/>
</svg>
