<svg width="1259" height="687" viewBox="0 0 1259 687" fill="none" xmlns="http://www.w3.org/2000/svg">
<path d="M197.591 457.969C106.178 457.969 59.3843 597.124 1 686H1259C1250.68 565.333 1211.5 1.00002 1133.5 1C1042.05 0.99998 1034.22 294.438 956.131 294.438C878.045 294.438 897.139 172.066 768.207 170.519C639.274 168.972 406.497 639.785 369.095 639.785C331.693 639.785 294.746 457.969 197.591 457.969Z" fill="url(#paint0_linear_821_1444)" fill-opacity="0.5" stroke="#8FC0DB" stroke-opacity="0.1"/>
<g filter="url(#filter0_d_821_1444)">
<rect x="966" y="396" width="226" height="69" rx="7" stroke="#F3A47D" stroke-width="2"/>
</g>
<g filter="url(#filter1_d_821_1444)">
<rect x="904" y="423" width="226" height="69" rx="7" stroke="#F3A47D" stroke-width="2"/>
</g>
<g filter="url(#filter2_d_821_1444)">
<rect x="556" y="297" width="186" height="64" rx="7" stroke="#FFC6AA" stroke-width="2"/>
</g>
<g filter="url(#filter3_d_821_1444)">
<rect x="821" y="68" width="396" height="306" rx="30" fill="white"/>
</g>
<g filter="url(#filter4_d_821_1444)">
<rect x="418" y="339" width="360" height="241" rx="15" fill="white"/>
</g>
<line x1="851.5" y1="344" x2="851.5" y2="96" stroke="#D4D4D4" stroke-opacity="0.5"/>
<line x1="887" y1="294" x2="887" y2="148" stroke="#537ABB" stroke-width="2"/>
<line x1="986" y1="289" x2="986" y2="176" stroke="#537ABB" stroke-width="2"/>
<line x1="1085" y1="328" x2="1085" y2="205" stroke="#537ABB" stroke-width="2"/>
<line x1="922" y1="296" x2="922" y2="169" stroke="#537ABB" stroke-width="2"/>
<line x1="1022" y1="296" x2="1022" y2="169" stroke="#537ABB" stroke-width="2"/>
<line x1="1121" y1="302" x2="1121" y2="156" stroke="#537ABB" stroke-width="2"/>
<line x1="1166" y1="302" x2="1166" y2="187" stroke="#537ABB" stroke-width="2"/>
<path d="M870 325L870 156" stroke="#537ABB" stroke-width="2"/>
<line x1="968" y1="310" x2="968" y2="176" stroke="#537ABB" stroke-width="2"/>
<line x1="1067" y1="316" x2="1067" y2="142" stroke="#537ABB" stroke-width="2"/>
<line x1="905" y1="205" x2="905" y2="95" stroke="#537ABB" stroke-width="2"/>
<line x1="1004" y1="310" x2="1004" y2="197" stroke="#537ABB" stroke-width="2"/>
<line x1="1103" y1="205" x2="1103" y2="96" stroke="#537ABB" stroke-width="2"/>
<line x1="941" y1="316" x2="941" y2="200" stroke="#537ABB" stroke-width="2"/>
<line x1="1040" y1="281" x2="1040" y2="151" stroke="#537ABB" stroke-width="2"/>
<line x1="1139" y1="333" x2="1139" y2="229" stroke="#537ABB" stroke-width="2"/>
<line x1="860" y1="310" x2="860" y2="200" stroke="#537ABB" stroke-width="2"/>
<line x1="959" y1="205" x2="959" y2="97" stroke="#537ABB" stroke-width="2"/>
<line x1="1058" y1="294" x2="1058" y2="176" stroke="#537ABB" stroke-width="2"/>
<line x1="896" y1="302" x2="896" y2="158" stroke="#537ABB" stroke-width="2"/>
<line x1="995" y1="255" x2="995" y2="142" stroke="#537ABB" stroke-width="2"/>
<line x1="1094" y1="243" x2="1094" y2="117" stroke="#537ABB" stroke-width="2"/>
<line x1="932" y1="325" x2="932" y2="187" stroke="#537ABB" stroke-width="2"/>
<line x1="1031" y1="310" x2="1031" y2="183" stroke="#537ABB" stroke-width="2"/>
<line x1="1130" y1="320" x2="1130" y2="197" stroke="#537ABB" stroke-width="2"/>
<line x1="1175" y1="316" x2="1175" y2="152" stroke="#537ABB" stroke-width="2"/>
<line x1="878" y1="289" x2="878" y2="126" stroke="#537ABB" stroke-width="2"/>
<line x1="977" y1="262" x2="977" y2="133" stroke="#537ABB" stroke-width="2"/>
<line x1="1076" y1="207" x2="1076" y2="97" stroke="#537ABB" stroke-width="2"/>
<line x1="914" y1="281" x2="914" y2="154" stroke="#537ABB" stroke-width="2"/>
<line x1="1013" y1="328" x2="1013" y2="230" stroke="#537ABB" stroke-width="2"/>
<line x1="1112" y1="289" x2="1112" y2="158" stroke="#537ABB" stroke-width="2"/>
<line x1="1157" y1="207" x2="1157" y2="117" stroke="#537ABB" stroke-width="2"/>
<line x1="950" y1="320" x2="950" y2="176" stroke="#537ABB" stroke-width="2"/>
<line x1="1049" y1="258" x2="1049" y2="187" stroke="#537ABB" stroke-width="2"/>
<line x1="852.002" y1="343.5" x2="1177" y2="344.485" stroke="#D4D4D4" stroke-opacity="0.5"/>
<line x1="852" y1="218.5" x2="1177" y2="218.5" stroke="#D4D4D4" stroke-opacity="0.5"/>
<line x1="1148" y1="240" x2="1148" y2="96" stroke="#537ABB" stroke-width="2"/>
<line x1="436.75" y1="394.25" x2="755.5" y2="394.25" stroke="#D4D4D4" stroke-opacity="0.5"/>
<line x1="438.25" y1="502.25" x2="757" y2="502.25" stroke="#D4D4D4" stroke-opacity="0.5"/>
<line x1="437.5" y1="448.25" x2="756.25" y2="448.25" stroke="#D4D4D4" stroke-opacity="0.5"/>
<line x1="439" y1="556.25" x2="757.75" y2="556.25" stroke="#D4D4D4" stroke-opacity="0.5"/>
<line x1="436" y1="421.25" x2="754.75" y2="421.25" stroke="#D4D4D4" stroke-opacity="0.5"/>
<line x1="437.5" y1="366.5" x2="756.25" y2="366.5" stroke="#D4D4D4" stroke-opacity="0.5"/>
<line x1="437.5" y1="529.25" x2="756.25" y2="529.25" stroke="#D4D4D4" stroke-opacity="0.5"/>
<line x1="436.75" y1="475.25" x2="755.5" y2="475.25" stroke="#D4D4D4" stroke-opacity="0.5"/>
<g filter="url(#filter5_d_821_1444)">
<rect x="731.054" y="512.71" width="24.4461" height="44.2358" fill="url(#paint1_linear_821_1444)"/>
<rect x="610.919" y="473.596" width="24.4461" height="83.3495" fill="url(#paint2_linear_821_1444)"/>
<rect x="490.784" y="522.954" width="24.4461" height="33.9917" fill="url(#paint3_linear_821_1444)"/>
<rect x="670.986" y="403.75" width="24.4461" height="153.195" fill="url(#paint4_linear_821_1444)"/>
<rect x="550.851" y="522.954" width="24.4461" height="33.9917" fill="url(#paint5_linear_821_1444)"/>
<rect x="701.02" y="453.573" width="24.4461" height="103.372" fill="url(#paint6_linear_821_1444)"/>
<rect x="580.885" y="482.909" width="24.4461" height="74.0367" fill="url(#paint7_linear_821_1444)"/>
<rect x="460.75" y="539.018" width="24.4461" height="17.9271" fill="url(#paint8_linear_821_1444)"/>
<rect x="640.953" y="424.471" width="24.4461" height="132.475" fill="url(#paint9_linear_821_1444)"/>
<g filter="url(#filter6_d_821_1444)">
<rect x="520.818" y="539.018" width="24.4461" height="17.9271" fill="url(#paint10_linear_821_1444)"/>
</g>
</g>
<circle cx="859" cy="213" r="3" fill="#F3A47D"/>
<circle cx="869" cy="195" r="3" fill="#F3A47D"/>
<circle cx="878" cy="153" r="3" fill="#F3A47D"/>
<circle cx="887" cy="189" r="3" fill="#F3A47D"/>
<circle cx="895" cy="196" r="3" fill="#F3A47D"/>
<circle cx="914" cy="176" r="3" fill="#F3A47D"/>
<circle cx="922" cy="196" r="3" fill="#F3A47D"/>
<circle cx="932" cy="221" r="3" fill="#F3A47D"/>
<circle cx="941" cy="219" r="3" fill="#F3A47D"/>
<circle cx="950" cy="204" r="3" fill="#F3A47D"/>
<circle cx="958" cy="105" r="3" fill="#F3A47D"/>
<circle cx="967" cy="198" r="3" fill="#F3A47D"/>
<circle cx="976" cy="167" r="3" fill="#F3A47D"/>
<circle cx="985" cy="190" r="3" fill="#F3A47D"/>
<circle cx="994" cy="170" r="3" fill="#F3A47D"/>
<circle cx="1003" cy="216" r="3" fill="#F3A47D"/>
<circle cx="1012" cy="247" r="3" fill="#F3A47D"/>
<circle cx="1021" cy="192" r="3" fill="#F3A47D"/>
<circle cx="1030" cy="212" r="3" fill="#F3A47D"/>
<circle cx="1039" cy="190" r="3" fill="#F3A47D"/>
<circle cx="1048" cy="187" r="3" fill="#F3A47D"/>
<circle cx="1057" cy="202" r="3" fill="#F3A47D"/>
<circle cx="1066" cy="190" r="3" fill="#F3A47D"/>
<circle cx="1076" cy="114" r="3" fill="#F3A47D"/>
<circle cx="1084" cy="235" r="3" fill="#F3A47D"/>
<circle cx="1093" cy="142" r="3" fill="#F3A47D"/>
<circle cx="1102" cy="110" r="3" fill="#F3A47D"/>
<circle cx="1120" cy="195" r="3" fill="#F3A47D"/>
<circle cx="1130" cy="229" r="3" fill="#F3A47D"/>
<circle cx="1139" cy="245" r="3" fill="#F3A47D"/>
<circle cx="1148" cy="134" r="3" fill="#F3A47D"/>
<circle cx="1166" cy="207" r="3" fill="#F3A47D"/>
<circle cx="1174" cy="190" r="3" fill="#F3A47D"/>
<circle cx="904" cy="105" r="3" fill="#F3A47D"/>
<line x1="817" y1="482" x2="817" y2="577" stroke="#FF925B" stroke-width="2"/>
<line x1="1103" y1="55" x2="1198" y2="55" stroke="#FF925B" stroke-width="2"/>
<line x1="1028" y1="43" x2="1198" y2="43" stroke="#FF925B" stroke-width="2"/>
<line x1="1068" y1="31" x2="1198" y2="31" stroke="#FF925B" stroke-width="2"/>
<line x1="804" y1="457" x2="804" y2="521" stroke="#FF925B" stroke-width="2"/>
<defs>
<filter id="filter0_d_821_1444" x="945" y="379" width="268" height="111" filterUnits="userSpaceOnUse" color-interpolation-filters="sRGB">
<feFlood flood-opacity="0" result="BackgroundImageFix"/>
<feColorMatrix in="SourceAlpha" type="matrix" values="0 0 0 0 0 0 0 0 0 0 0 0 0 0 0 0 0 0 127 0" result="hardAlpha"/>
<feOffset dy="4"/>
<feGaussianBlur stdDeviation="10"/>
<feColorMatrix type="matrix" values="0 0 0 0 0.32549 0 0 0 0 0.478431 0 0 0 0 0.733333 0 0 0 0.5 0"/>
<feBlend mode="normal" in2="BackgroundImageFix" result="effect1_dropShadow_821_1444"/>
<feBlend mode="normal" in="SourceGraphic" in2="effect1_dropShadow_821_1444" result="shape"/>
</filter>
<filter id="filter1_d_821_1444" x="883" y="406" width="268" height="111" filterUnits="userSpaceOnUse" color-interpolation-filters="sRGB">
<feFlood flood-opacity="0" result="BackgroundImageFix"/>
<feColorMatrix in="SourceAlpha" type="matrix" values="0 0 0 0 0 0 0 0 0 0 0 0 0 0 0 0 0 0 127 0" result="hardAlpha"/>
<feOffset dy="4"/>
<feGaussianBlur stdDeviation="10"/>
<feColorMatrix type="matrix" values="0 0 0 0 0.32549 0 0 0 0 0.478431 0 0 0 0 0.733333 0 0 0 0.5 0"/>
<feBlend mode="normal" in2="BackgroundImageFix" result="effect1_dropShadow_821_1444"/>
<feBlend mode="normal" in="SourceGraphic" in2="effect1_dropShadow_821_1444" result="shape"/>
</filter>
<filter id="filter2_d_821_1444" x="505" y="250" width="288" height="166" filterUnits="userSpaceOnUse" color-interpolation-filters="sRGB">
<feFlood flood-opacity="0" result="BackgroundImageFix"/>
<feColorMatrix in="SourceAlpha" type="matrix" values="0 0 0 0 0 0 0 0 0 0 0 0 0 0 0 0 0 0 127 0" result="hardAlpha"/>
<feOffset dy="4"/>
<feGaussianBlur stdDeviation="25"/>
<feColorMatrix type="matrix" values="0 0 0 0 0.32549 0 0 0 0 0.478431 0 0 0 0 0.733333 0 0 0 0.25 0"/>
<feBlend mode="normal" in2="BackgroundImageFix" result="effect1_dropShadow_821_1444"/>
<feBlend mode="normal" in="SourceGraphic" in2="effect1_dropShadow_821_1444" result="shape"/>
</filter>
<filter id="filter3_d_821_1444" x="796" y="47" width="446" height="356" filterUnits="userSpaceOnUse" color-interpolation-filters="sRGB">
<feFlood flood-opacity="0" result="BackgroundImageFix"/>
<feColorMatrix in="SourceAlpha" type="matrix" values="0 0 0 0 0 0 0 0 0 0 0 0 0 0 0 0 0 0 127 0" result="hardAlpha"/>
<feOffset dy="4"/>
<feGaussianBlur stdDeviation="12.5"/>
<feColorMatrix type="matrix" values="0 0 0 0 0.32549 0 0 0 0 0.478431 0 0 0 0 0.733333 0 0 0 0.25 0"/>
<feBlend mode="normal" in2="BackgroundImageFix" result="effect1_dropShadow_821_1444"/>
<feBlend mode="normal" in="SourceGraphic" in2="effect1_dropShadow_821_1444" result="shape"/>
</filter>
<filter id="filter4_d_821_1444" x="393" y="318" width="410" height="291" filterUnits="userSpaceOnUse" color-interpolation-filters="sRGB">
<feFlood flood-opacity="0" result="BackgroundImageFix"/>
<feColorMatrix in="SourceAlpha" type="matrix" values="0 0 0 0 0 0 0 0 0 0 0 0 0 0 0 0 0 0 127 0" result="hardAlpha"/>
<feOffset dy="4"/>
<feGaussianBlur stdDeviation="12.5"/>
<feColorMatrix type="matrix" values="0 0 0 0 0.32549 0 0 0 0 0.478431 0 0 0 0 0.733333 0 0 0 0.25 0"/>
<feBlend mode="normal" in2="BackgroundImageFix" result="effect1_dropShadow_821_1444"/>
<feBlend mode="normal" in="SourceGraphic" in2="effect1_dropShadow_821_1444" result="shape"/>
</filter>
<filter id="filter5_d_821_1444" x="460.75" y="403.75" width="302.75" height="161.196" filterUnits="userSpaceOnUse" color-interpolation-filters="sRGB">
<feFlood flood-opacity="0" result="BackgroundImageFix"/>
<feColorMatrix in="SourceAlpha" type="matrix" values="0 0 0 0 0 0 0 0 0 0 0 0 0 0 0 0 0 0 127 0" result="hardAlpha"/>
<feOffset dx="4" dy="4"/>
<feGaussianBlur stdDeviation="2"/>
<feColorMatrix type="matrix" values="0 0 0 0 0 0 0 0 0 0 0 0 0 0 0 0 0 0 0.25 0"/>
<feBlend mode="normal" in2="BackgroundImageFix" result="effect1_dropShadow_821_1444"/>
<feBlend mode="normal" in="SourceGraphic" in2="effect1_dropShadow_821_1444" result="shape"/>
</filter>
<filter id="filter6_d_821_1444" x="520.818" y="539.018" width="32.4461" height="25.9271" filterUnits="userSpaceOnUse" color-interpolation-filters="sRGB">
<feFlood flood-opacity="0" result="BackgroundImageFix"/>
<feColorMatrix in="SourceAlpha" type="matrix" values="0 0 0 0 0 0 0 0 0 0 0 0 0 0 0 0 0 0 127 0" result="hardAlpha"/>
<feOffset dx="4" dy="4"/>
<feGaussianBlur stdDeviation="2"/>
<feColorMatrix type="matrix" values="0 0 0 0 0 0 0 0 0 0 0 0 0 0 0 0 0 0 0.25 0"/>
<feBlend mode="normal" in2="BackgroundImageFix" result="effect1_dropShadow_821_1444"/>
<feBlend mode="normal" in="SourceGraphic" in2="effect1_dropShadow_821_1444" result="shape"/>
</filter>
<linearGradient id="paint0_linear_821_1444" x1="630" y1="149.697" x2="630" y2="686" gradientUnits="userSpaceOnUse">
<stop stop-color="#E6E7FF"/>
<stop offset="1" stop-color="#C8DFFF"/>
</linearGradient>
<linearGradient id="paint1_linear_821_1444" x1="743.277" y1="512.71" x2="743.277" y2="556.945" gradientUnits="userSpaceOnUse">
<stop stop-color="#344F99"/>
<stop offset="1" stop-color="#537ABB"/>
</linearGradient>
<linearGradient id="paint2_linear_821_1444" x1="623.142" y1="473.596" x2="623.142" y2="556.946" gradientUnits="userSpaceOnUse">
<stop stop-color="#344F99"/>
<stop offset="1" stop-color="#537ABB"/>
</linearGradient>
<linearGradient id="paint3_linear_821_1444" x1="503.007" y1="522.954" x2="503.007" y2="556.946" gradientUnits="userSpaceOnUse">
<stop stop-color="#344F99"/>
<stop offset="1" stop-color="#537ABB"/>
</linearGradient>
<linearGradient id="paint4_linear_821_1444" x1="683.209" y1="403.75" x2="683.209" y2="556.945" gradientUnits="userSpaceOnUse">
<stop stop-color="#344F99"/>
<stop offset="1" stop-color="#537ABB"/>
</linearGradient>
<linearGradient id="paint5_linear_821_1444" x1="563.074" y1="522.954" x2="563.074" y2="556.946" gradientUnits="userSpaceOnUse">
<stop stop-color="#344F99"/>
<stop offset="1" stop-color="#537ABB"/>
</linearGradient>
<linearGradient id="paint6_linear_821_1444" x1="713.243" y1="453.573" x2="713.243" y2="556.945" gradientUnits="userSpaceOnUse">
<stop stop-color="#344F99"/>
<stop offset="1" stop-color="#537ABB"/>
</linearGradient>
<linearGradient id="paint7_linear_821_1444" x1="593.108" y1="482.909" x2="593.108" y2="556.946" gradientUnits="userSpaceOnUse">
<stop stop-color="#344F99"/>
<stop offset="1" stop-color="#537ABB"/>
</linearGradient>
<linearGradient id="paint8_linear_821_1444" x1="472.973" y1="539.018" x2="472.973" y2="556.946" gradientUnits="userSpaceOnUse">
<stop stop-color="#344F99"/>
<stop offset="1" stop-color="#537ABB"/>
</linearGradient>
<linearGradient id="paint9_linear_821_1444" x1="653.176" y1="424.471" x2="653.176" y2="556.946" gradientUnits="userSpaceOnUse">
<stop stop-color="#344F99"/>
<stop offset="1" stop-color="#537ABB"/>
</linearGradient>
<linearGradient id="paint10_linear_821_1444" x1="533.041" y1="539.018" x2="533.041" y2="556.945" gradientUnits="userSpaceOnUse">
<stop stop-color="#344F99"/>
<stop offset="1" stop-color="#537ABB"/>
</linearGradient>
</defs>
</svg>
