<svg width="49" height="48" viewBox="0 0 49 48" fill="none" xmlns="http://www.w3.org/2000/svg">
<ellipse cx="24.5771" cy="24" rx="23.8834" ry="24" fill="#F3A47D"/>
<path d="M17.3847 17.4033V34H11.6572V17.4033H17.3847ZM14.5429 10.7236C15.3632 10.7236 16.0761 10.8945 16.6816 11.2363C17.2968 11.5781 17.6044 12.2568 17.6044 13.2725C17.6044 14.2588 17.2968 14.9277 16.6816 15.2793C16.0761 15.6211 15.3632 15.792 14.5429 15.792C13.7031 15.792 12.9853 15.6211 12.3896 15.2793C11.8036 14.9277 11.5107 14.2588 11.5107 13.2725C11.5107 12.2568 11.8036 11.5781 12.3896 11.2363C12.9853 10.8945 13.7031 10.7236 14.5429 10.7236ZM31.7695 17.1104C33.4785 17.1104 34.8749 17.5938 35.9589 18.5605C37.0429 19.5273 37.5849 21.0752 37.5849 23.2041V34H31.8574V24.9473C31.8574 23.8438 31.6962 23.0137 31.374 22.457C31.0615 21.8906 30.5536 21.6074 29.8505 21.6074C28.7665 21.6074 28.039 22.0518 27.6679 22.9404C27.2968 23.8193 27.1113 25.084 27.1113 26.7344V34H21.3837V17.4033H25.705L26.4814 19.6006H26.7011C27.0527 19.0732 27.4726 18.624 27.9609 18.2529C28.4492 17.8818 29.0107 17.5986 29.6454 17.4033C30.2802 17.208 30.9882 17.1104 31.7695 17.1104Z" fill="white"/>
</svg>
