<svg width="67" height="54" viewBox="0 0 67 54" fill="none" xmlns="http://www.w3.org/2000/svg">
<rect x="2.5" y="4.5" width="45" height="45" rx="7.5" stroke="white" stroke-width="4"/>
<path d="M24.4766 42H20.8438V23.2109H17.6602V20.1836H20.8438V19.168C20.8438 16.0039 21.5078 13.7643 22.8359 12.4492C24.1771 11.1341 25.9219 10.4766 28.0703 10.4766C28.8776 10.4766 29.8997 10.5677 31.1367 10.75V13.7188C30.1211 13.5885 29.3073 13.5234 28.6953 13.5234C27.5234 13.5234 26.5273 13.8099 25.707 14.3828C24.8867 14.9557 24.4766 16.3229 24.4766 18.4844V20.1836H30.8438V23.2109H24.4766V42Z" fill="white"/>
<path fill="white" d="M24.4766 42V43H25.4766V42H24.4766ZM20.8438 42H19.8438V43H20.8438V42ZM20.8438 23.2109H21.8438V22.2109H20.8438V23.2109ZM17.6602 23.2109H16.6602V24.2109H17.6602V23.2109ZM17.6602 20.1836V19.1836H16.6602V20.1836H17.6602ZM20.8438 20.1836V21.1836H21.8438V20.1836H20.8438ZM22.8359 12.4492L22.1358 11.7352L22.1323 11.7386L22.8359 12.4492ZM31.1367 10.75H32.1367V9.88657L31.2825 9.76068L31.1367 10.75ZM31.1367 13.7188L31.0096 14.7106L32.1367 14.8551V13.7188H31.1367ZM24.4766 20.1836H23.4766V21.1836H24.4766V20.1836ZM30.8438 20.1836H31.8438V19.1836H30.8438V20.1836ZM30.8438 23.2109V24.2109H31.8438V23.2109H30.8438ZM24.4766 23.2109V22.2109H23.4766V23.2109H24.4766ZM24.4766 41H20.8438V43H24.4766V41ZM21.8438 42V23.2109H19.8438V42H21.8438ZM20.8438 22.2109H17.6602V24.2109H20.8438V22.2109ZM18.6602 23.2109V20.1836H16.6602V23.2109H18.6602ZM17.6602 21.1836H20.8438V19.1836H17.6602V21.1836ZM21.8438 20.1836V19.168H19.8438V20.1836H21.8438ZM21.8438 19.168C21.8438 16.0969 22.4966 14.1925 23.5396 13.1598L22.1323 11.7386C20.519 13.3361 19.8438 15.9109 19.8438 19.168H21.8438ZM23.5361 13.1632C24.6631 12.0581 26.1429 11.4766 28.0703 11.4766V9.47656C25.7008 9.47656 23.6911 10.2101 22.1358 11.7352L23.5361 13.1632ZM28.0703 11.4766C28.81 11.4766 29.7791 11.5607 30.9909 11.7393L31.2825 9.76068C30.0204 9.57469 28.9452 9.47656 28.0703 9.47656V11.4766ZM30.1367 10.75V13.7188H32.1367V10.75H30.1367ZM31.2639 12.7269C30.2301 12.5943 29.3686 12.5234 28.6953 12.5234V14.5234C29.246 14.5234 30.0121 14.5828 31.0096 14.7106L31.2639 12.7269ZM28.6953 12.5234C27.3547 12.5234 26.15 12.8537 25.1344 13.563L26.2796 15.2027C26.9047 14.7661 27.6922 14.5234 28.6953 14.5234V12.5234ZM25.1344 13.563C24.4751 14.0235 24.0692 14.7409 23.8264 15.5505C23.5829 16.3621 23.4766 17.3509 23.4766 18.4844H25.4766C25.4766 17.4564 25.5753 16.6808 25.742 16.1252C25.9093 15.5677 26.1187 15.3151 26.2796 15.2027L25.1344 13.563ZM23.4766 18.4844V20.1836H25.4766V18.4844H23.4766ZM24.4766 21.1836H30.8438V19.1836H24.4766V21.1836ZM29.8438 20.1836V23.2109H31.8438V20.1836H29.8438ZM30.8438 22.2109H24.4766V24.2109H30.8438V22.2109ZM23.4766 23.2109V42H25.4766V23.2109H23.4766Z"/>
</svg>
