<svg width="49" height="48" viewBox="0 0 49 48" fill="none" xmlns="http://www.w3.org/2000/svg">
<ellipse cx="24.2708" cy="24" rx="23.8834" ry="24" fill="#F3A47D"/>
<path d="M34.5791 15.457H33.9199C33.5944 15.3594 33.0817 15.2373 32.3818 15.0908C31.6982 14.9281 31.0472 14.8467 30.4287 14.8467C28.7035 14.8467 27.5234 15.1641 26.8887 15.7988C26.2702 16.4336 25.9609 17.6217 25.9609 19.3633V19.583H32.748V25.54H26.2539V47H17.709V25.54H14.291V19.583H17.709V18.8262C17.709 15.4733 18.5879 12.9587 20.3457 11.2822C22.1035 9.60579 24.7646 8.76758 28.3291 8.76758C29.5661 8.76758 30.7217 8.81641 31.7959 8.91406C32.8701 8.99544 33.7979 9.10938 34.5791 9.25586V15.457Z" fill="white"/>
</svg>
